<svg xmlns="http://www.w3.org/2000/svg" width="597" height="597" viewBox="0 0 597 597">
<g>
<path d="M 301.96 524.02 C297.15,526.47 293.68,526.49 288.40,524.09 C283.11,521.69 279.80,516.99 279.23,511.06 L 278.78 506.37 L 267.14 502.46 C249.56,496.56 237.77,491.88 242.39,492.64 C245.18,493.09 246.09,492.95 245.59,492.14 C244.46,490.32 245.91,490.70 262.28,496.50 C270.81,499.52 278.48,502.00 279.33,502.00 C282.61,502.00 282.27,498.03 278.52,492.70 C268.95,479.05 266.10,474.75 268.43,477.50 C268.96,478.12 269.45,478.70 269.90,479.23 C273.56,483.55 274.74,484.94 274.94,484.82 C275.03,484.76 274.90,484.35 274.71,483.75 C274.66,483.60 274.61,483.43 274.56,483.25 C273.32,479.23 275.40,480.94 280.45,488.11 C284.60,493.98 285.74,495.01 287.45,494.42 C292.18,492.80 301.05,492.80 303.53,494.43 C305.97,496.03 306.06,495.96 321.24,481.23 C329.63,473.09 339.09,464.01 342.25,461.04 C345.41,458.08 348.00,455.37 348.00,455.02 C348.00,454.66 334.39,453.83 317.75,453.16 C301.11,452.49 282.55,451.68 276.50,451.37 L 265.50 450.80 L 260.70 460.04 L 264.21 465.27 C269.40,472.98 269.66,474.05 265.11,469.00 C261.02,464.46 259.66,464.47 262.59,469.03 C263.46,470.39 262.80,469.92 261.12,468.00 C259.43,466.08 258.04,464.16 258.03,463.75 C258.01,463.34 257.33,463.00 256.50,463.00 C255.68,463.00 255.00,462.55 255.00,462.00 C255.00,461.45 255.89,461.00 256.98,461.00 C258.70,461.00 258.82,460.66 257.94,458.35 C257.06,456.02 257.30,455.39 260.02,453.10 C264.94,448.95 264.65,441.95 259.31,435.85 C257.69,433.99 257.88,431.16 259.75,429.18 C261.27,427.57 261.37,426.00 259.95,426.00 C259.37,426.00 260.57,422.96 262.61,419.25 C266.05,412.98 269.68,407.71 267.09,412.75 C265.57,415.69 267.39,415.71 269.44,412.78 C271.54,409.78 271.58,407.27 269.50,409.00 C268.68,409.68 269.17,408.16 270.59,405.62 C273.12,401.09 274.50,399.54 273.36,402.50 C272.30,405.26 274.93,404.04 276.47,401.05 C278.54,397.06 278.50,393.44 276.43,397.25 C275.61,398.76 274.70,400.00 274.41,400.00 C274.12,400.00 274.07,399.66 274.30,399.25 C274.53,398.84 278.61,391.70 283.36,383.38 C288.11,375.07 292.00,367.82 292.00,367.29 C292.00,365.30 287.77,362.52 285.26,362.85 C283.35,363.10 282.86,362.81 283.28,361.70 C283.70,360.62 283.26,360.33 281.68,360.60 C280.48,360.80 280.94,360.47 282.70,359.86 C284.98,359.06 286.01,357.99 286.31,356.12 C286.60,354.29 286.67,354.48 286.56,356.75 C286.44,359.24 287.18,360.75 289.73,363.22 C292.61,366.01 293.32,366.28 295.01,365.22 C297.75,363.52 298.24,363.69 297.03,365.95 C296.21,367.48 296.36,368.11 297.74,368.92 C299.32,369.83 299.26,369.94 297.25,369.97 C296.01,369.99 295.00,370.36 295.00,370.81 C295.00,371.25 293.43,374.23 291.51,377.42 C289.58,380.61 286.27,386.44 284.14,390.36 C282.01,394.29 278.26,400.88 275.81,405.00 L 275.71 405.16 C261.61,428.89 259.23,432.90 260.37,434.86 C260.60,435.26 260.98,435.57 261.45,435.95 C262.24,436.61 263.61,439.32 264.49,441.98 L 266.09 446.80 L 279.30 447.41 C352.20,450.75 353.37,450.77 355.24,448.90 C356.06,448.09 370.09,435.10 386.43,420.03 C413.84,394.76 416.07,392.45 415.42,390.07 C415.04,388.66 414.44,385.95 414.10,384.05 L 413.48 380.61 L 397.99 377.30 C355.48,368.21 334.73,363.74 327.09,362.00 L 318.67 360.09 L 314.75 364.54 C312.60,366.99 310.35,369.00 309.76,369.00 C309.17,369.00 309.45,368.16 310.38,367.13 C311.99,365.35 311.96,365.22 309.83,364.66 C308.50,364.32 306.91,364.68 305.96,365.54 C302.57,368.61 300.37,366.77 302.50,362.65 C303.28,361.17 303.92,359.62 303.95,359.23 C303.97,358.83 304.61,357.77 305.37,356.88 C306.92,355.07 306.72,350.06 305.05,349.03 C304.45,348.66 303.55,346.93 303.05,345.18 C302.32,342.64 302.43,342.00 303.60,342.00 C304.41,342.00 305.33,342.69 305.65,343.53 C306.10,344.70 306.55,344.79 307.62,343.90 C309.63,342.23 309.31,340.47 306.75,339.15 C304.68,338.09 304.75,338.04 307.60,338.54 C310.63,339.08 310.89,338.79 319.75,325.30 C324.73,317.71 330.21,309.48 331.94,307.00 C333.66,304.52 340.91,293.50 348.06,282.50 C355.20,271.50 363.29,259.10 366.02,254.95 C371.32,246.93 371.89,244.98 369.51,243.01 C367.60,241.42 365.48,241.82 348.50,246.91 C340.80,249.22 330.67,252.22 326.00,253.58 C321.33,254.95 316.94,256.26 316.25,256.50 C315.56,256.74 315.00,256.53 315.00,256.04 C315.00,255.54 315.90,254.85 317.00,254.50 C319.76,253.63 319.53,252.06 316.75,252.74 C315.51,253.05 314.73,253.07 315.00,252.79 C315.43,252.36 342.02,244.53 360.23,239.46 C366.82,237.63 367.39,237.04 366.50,232.99 C365.91,230.32 365.09,229.79 358.17,227.62 C347.61,224.31 323.61,215.84 323.00,215.22 C322.73,214.93 323.56,214.97 324.87,215.29 C326.17,215.61 327.97,215.42 328.87,214.87 C330.09,214.12 335.21,215.50 349.10,220.31 L 367.70 226.75 L 370.35 223.43 L 373.00 220.11 L 371.13 216.81 C367.25,209.95 350.07,175.57 351.34,177.22 C352.28,178.42 352.98,178.62 353.73,177.87 C354.86,176.74 358.11,182.30 370.15,205.98 L 376.50 218.46 L 381.65 218.16 C391.79,217.57 397.88,223.10 398.96,233.86 L 399.50 239.23 L 414.50 245.93 C459.10,265.87 466.57,269.26 471.04,271.52 C476.75,274.42 478.28,274.57 480.06,272.43 C482.22,269.82 488.69,267.00 492.50,267.00 C502.09,267.00 508.55,274.68 507.79,285.18 C507.43,290.19 506.88,291.53 503.95,294.55 C501.94,296.63 498.68,298.61 496.02,299.39 L 491.50 300.70 L 486.30 325.60 C472.33,392.46 466.14,423.03 464.02,435.50 C463.18,440.45 463.21,440.53 467.07,444.00 C471.36,447.85 473.00,451.33 473.00,456.60 C473.00,463.80 468.02,470.53 460.81,473.06 C456.31,474.64 450.65,473.26 446.15,469.47 C444.53,468.11 442.54,467.00 441.71,467.00 C440.88,467.00 430.15,470.19 417.85,474.08 C405.56,477.98 392.80,481.97 389.50,482.95 C380.66,485.58 322.32,503.91 316.52,505.87 C311.82,507.47 311.50,507.80 310.82,511.81 C309.88,517.31 306.80,521.55 301.96,524.02 ZM 315.53 345.04 C316.51,346.12 317.39,347.00 317.50,347.00 C318.06,347.00 329.38,342.92 335.00,340.70 C338.58,339.28 354.94,333.14 371.36,327.04 C387.79,320.94 402.23,315.39 403.45,314.72 L 405.66 313.50 L 397.36 287.00 C392.79,272.42 388.43,258.48 387.66,256.00 C386.43,252.05 385.85,251.43 382.88,250.92 C381.02,250.61 378.53,250.03 377.35,249.64 C375.43,249.00 373.48,251.52 358.78,273.71 C327.42,321.07 314.81,340.33 314.29,341.70 C314.00,342.45 314.56,343.96 315.53,345.04 ZM 403.00 374.48 C409.82,376.04 415.00,376.30 415.00,375.07 C415.00,374.56 416.58,372.47 418.50,370.43 C420.42,368.39 422.00,366.29 422.00,365.77 C422.00,365.25 419.55,357.32 416.56,348.16 C413.57,339.00 410.32,328.86 409.34,325.63 C408.36,322.41 406.98,319.55 406.27,319.27 C405.12,318.83 367.93,332.30 323.50,349.25 C320.16,350.53 319.50,351.23 319.50,353.56 C319.50,356.12 319.94,356.44 325.00,357.55 C328.02,358.21 337.92,360.36 347.00,362.32 C356.08,364.28 371.15,367.53 380.50,369.55 C389.85,371.57 399.98,373.79 403.00,374.48 ZM 409.15 310.25 C409.66,311.21 410.42,312.00 410.84,312.00 C411.47,312.00 443.42,300.37 469.50,290.65 L 475.50 288.41 L 476.09 278.37 L 468.80 275.03 C441.11,262.35 433.55,258.93 417.73,251.90 C407.95,247.55 399.26,244.00 398.41,244.00 C397.56,244.00 395.37,245.14 393.55,246.53 C390.58,248.80 390.31,249.41 390.98,252.28 C392.20,257.45 408.15,308.33 409.15,310.25 ZM 423.50 453.91 C431.20,454.35 438.15,454.67 438.94,454.61 C439.73,454.55 440.74,453.06 441.20,451.31 C441.65,449.56 443.37,446.79 445.01,445.14 C446.66,443.50 448.00,441.54 448.00,440.78 C448.00,440.03 444.91,430.45 441.13,419.50 L 434.25 399.60 L 428.88 398.23 L 428.60 398.16 C422.57,396.64 420.24,396.05 418.37,396.72 C417.15,397.16 416.13,398.13 414.43,399.71 C402.67,410.64 376.81,434.38 369.98,440.50 C362.66,447.07 360.40,449.74 361.36,450.69 C361.58,450.91 372.50,451.55 385.63,452.11 C398.76,452.66 415.80,453.47 423.50,453.91 ZM 445.22 419.02 L 452.44 440.00 L 455.72 440.00 C457.52,440.00 459.00,439.66 459.01,439.25 C459.02,438.30 475.19,358.42 481.91,326.14 C484.70,312.74 486.73,301.37 486.42,300.87 C485.21,298.91 483.41,301.44 461.03,336.50 C456.46,343.65 450.09,353.63 446.87,358.67 C443.64,363.71 441.00,368.08 441.00,368.38 C441.00,368.67 442.12,370.57 443.50,372.60 C447.29,378.19 447.05,386.18 442.91,391.80 C441.22,394.11 439.42,396.00 438.91,396.00 C437.39,396.00 437.74,397.29 445.22,419.02 ZM 309.91 500.83 C310.55,502.03 311.32,503.00 311.62,503.00 C311.93,503.00 320.12,500.49 329.84,497.41 C339.55,494.34 350.42,490.93 354.00,489.84 C357.58,488.74 371.75,484.31 385.50,479.98 C399.25,475.65 417.13,470.02 425.24,467.48 C451.60,459.20 449.51,458.62 383.24,455.93 L 353.99 454.74 L 340.24 468.16 C332.68,475.54 322.51,485.42 317.63,490.12 C309.54,497.91 308.85,498.86 309.91,500.83 ZM 426.07 364.13 C426.84,365.57 428.20,366.00 431.99,366.00 C432.54,366.00 433.01,366.03 433.44,366.06 C434.09,366.10 434.62,366.13 435.14,366.04 C437.98,365.56 440.22,361.47 456.92,335.00 C462.65,325.92 470.49,313.61 474.35,307.64 C479.93,299.00 481.14,296.45 480.31,295.14 C478.65,292.54 473.62,293.33 460.00,298.32 C426.41,310.64 412.72,315.88 411.83,316.77 C411.19,317.41 412.46,322.60 415.47,331.63 C418.02,339.26 421.21,349.27 422.58,353.88 C423.95,358.48 425.52,363.09 426.07,364.13 ZM 285.82 343.38 C285.64,343.48 284.83,344.06 284.00,344.67 C282.83,345.53 280.44,344.62 273.04,340.49 C267.83,337.59 263.41,334.61 263.21,333.86 C262.95,332.89 263.15,332.93 263.91,334.00 C264.49,334.83 264.98,335.13 264.98,334.68 C264.99,334.23 265.73,334.59 266.62,335.48 C268.60,337.45 269.78,336.65 268.02,334.52 C267.32,333.69 267.04,333.00 267.39,333.00 C268.23,333.00 286.23,343.15 285.82,343.38 ZM 346.00 222.00 C346.00,222.55 347.01,222.99 348.25,222.98 C350.07,222.97 350.21,222.78 349.00,222.00 C347.06,220.75 346.00,220.75 346.00,222.00 Z" fill="rgb(45,177,191)"/>
<path d="M 221.89 426.20 C229.92,432.08 236.70,436.92 236.94,436.95 C237.18,436.98 238.42,436.02 239.70,434.81 C241.46,433.15 243.72,432.49 249.03,432.06 L 256.04 431.50 L 260.65 423.17 C259.90,424.88 259.60,426.00 259.95,426.00 C261.37,426.00 261.27,427.57 259.75,429.18 C257.88,431.16 257.69,433.99 259.31,435.85 C264.65,441.95 264.94,448.95 260.02,453.10 C257.30,455.39 257.06,456.02 257.94,458.35 C258.82,460.66 258.70,461.00 256.98,461.00 C255.89,461.00 255.00,461.45 255.00,462.00 C255.00,462.55 255.68,463.00 256.50,463.00 C256.73,463.00 256.95,463.03 257.14,463.07 L 251.50 463.58 C246.87,464.00 244.70,463.71 242.02,462.31 C238.91,460.69 234.82,455.95 233.74,452.72 C233.44,451.83 225.62,452.36 202.92,454.80 C170.74,458.25 166.51,458.60 166.03,460.12 C165.96,460.36 165.97,460.61 165.99,460.91 C165.99,461.05 166.00,461.19 166.00,461.34 C166.00,461.41 166.00,461.47 166.00,461.54 C165.99,461.68 165.99,461.81 166.00,461.94 C166.23,463.88 170.66,465.33 241.87,489.55 C243.88,490.24 245.86,490.91 247.78,491.57 C245.11,490.83 244.99,491.18 245.59,492.14 C246.09,492.95 245.18,493.09 242.39,492.64 C239.09,492.09 244.17,494.33 253.76,497.81 C250.25,496.60 246.94,495.45 244.50,494.60 C218.21,485.44 174.89,470.60 169.74,468.98 L 163.98 467.18 L 159.94 470.55 C157.71,472.41 154.37,474.21 152.51,474.56 C143.48,476.26 133.96,467.62 134.02,457.78 C134.05,454.01 136.92,447.13 139.29,445.17 C140.76,443.95 140.70,443.38 138.57,438.67 C122.49,403.08 111.92,379.52 107.97,370.41 C101.10,354.58 99.72,350.98 97.39,350.19 C96.71,349.96 95.94,349.98 94.93,349.99 C94.65,350.00 94.36,350.00 94.04,350.00 C85.14,350.00 78.00,342.69 78.00,333.60 C78.01,325.05 82.46,319.84 91.81,317.47 C93.07,317.15 93.95,317.14 94.69,316.79 C97.16,315.65 97.91,310.82 105.01,278.50 C108.76,261.45 116.12,228.01 121.37,204.19 L 130.93 160.88 L 127.41 157.79 C122.79,153.73 121.00,150.07 121.00,144.70 C121.00,137.17 127.12,130.33 134.78,129.30 C140.61,128.52 143.53,129.52 148.35,133.97 L 152.58 137.87 L 180.04 131.05 C212.03,123.11 254.32,112.77 278.43,107.00 C287.74,104.78 295.95,102.46 296.68,101.85 C297.40,101.25 298.00,99.89 298.00,98.84 C298.00,97.78 298.91,95.14 300.01,92.97 C302.79,87.53 308.57,84.63 315.52,85.21 C324.62,85.96 330.00,91.84 330.00,101.03 C330.00,105.62 328.88,108.30 325.38,112.06 L 323.00 114.61 L 332.91 134.06 C343.62,155.07 350.54,168.52 358.56,183.86 C355.59,178.63 354.35,177.25 353.73,177.87 C352.98,178.62 352.28,178.42 351.34,177.22 C350.57,176.22 356.56,188.43 362.28,199.75 C359.82,194.99 357.07,189.62 354.20,184.00 C344.81,165.57 333.30,143.07 328.65,134.00 L 320.17 117.50 L 314.34 116.90 C311.13,116.57 307.09,115.70 305.38,114.98 C302.60,113.80 301.98,113.87 299.84,115.58 C291.59,122.17 238.24,167.01 237.28,168.16 C236.46,169.14 236.39,170.76 237.03,173.53 C237.53,175.72 237.74,178.18 237.49,179.00 C237.25,179.82 237.37,181.00 237.77,181.61 C238.17,182.22 245.93,185.22 255.00,188.29 C264.08,191.35 281.85,197.45 294.50,201.84 C314.30,208.71 318.61,210.20 334.37,215.54 C331.11,214.66 329.48,214.49 328.87,214.87 C327.97,215.42 326.17,215.61 324.87,215.29 C323.56,214.97 322.73,214.93 323.00,215.22 C323.26,215.48 327.70,217.15 333.53,219.23 C314.03,212.45 268.53,196.83 250.67,190.79 L 235.85 185.77 L 232.92 188.58 C231.92,189.54 231.19,190.16 230.85,190.95 C230.06,192.80 231.38,195.55 236.22,205.65 C236.47,206.18 236.73,206.73 237.00,207.30 C240.22,214.01 246.41,227.14 250.77,236.47 L 258.69 253.45 L 262.67 253.16 C268.10,252.77 274.00,255.38 277.00,259.51 C278.38,261.40 279.73,262.95 280.00,262.95 C280.44,262.96 295.73,258.48 315.94,252.43 C315.37,252.62 315.04,252.75 315.00,252.79 C314.73,253.07 315.51,253.05 316.75,252.74 C319.53,252.06 319.76,253.63 317.00,254.50 C315.90,254.85 315.00,255.54 315.00,256.04 C315.00,256.31 315.17,256.50 315.44,256.57 C312.74,257.35 310.07,258.11 307.50,258.85 L 280.50 266.58 L 279.94 270.54 C279.26,275.31 276.65,280.54 274.54,281.35 C273.69,281.67 273.00,282.42 273.00,283.01 C273.00,284.49 284.15,310.50 292.07,327.50 C293.09,329.70 294.55,333.08 295.31,335.01 L 296.69 338.51 L 303.92 338.45 L 305.45 338.44 C305.66,338.58 306.10,338.82 306.75,339.15 C309.31,340.47 309.63,342.23 307.62,343.90 C306.55,344.79 306.10,344.70 305.65,343.53 C305.33,342.69 304.41,342.00 303.60,342.00 C302.43,342.00 302.32,342.64 303.05,345.18 C303.55,346.93 304.45,348.66 305.05,349.03 C306.72,350.06 306.92,355.07 305.37,356.88 C304.61,357.77 303.97,358.83 303.95,359.23 C303.92,359.62 303.28,361.17 302.50,362.65 C300.37,366.77 302.57,368.61 305.96,365.54 C306.91,364.68 308.50,364.32 309.83,364.66 C311.96,365.22 311.99,365.35 310.38,367.13 C309.45,368.16 309.17,369.00 309.76,369.00 C309.78,369.00 309.81,369.00 309.84,368.99 C307.10,370.68 304.26,371.07 300.32,370.61 C297.43,370.27 295.06,370.35 295.00,370.78 C295.04,370.35 296.04,369.99 297.25,369.97 C299.26,369.94 299.32,369.83 297.74,368.92 C296.36,368.11 296.21,367.48 297.03,365.95 C298.24,363.69 297.75,363.52 295.01,365.22 C293.32,366.28 292.61,366.01 289.73,363.22 C287.18,360.75 286.44,359.24 286.56,356.75 C286.67,354.48 286.60,354.29 286.31,356.12 C286.24,356.52 286.15,356.88 286.01,357.22 C286.02,356.23 286.29,353.89 286.60,351.98 C287.18,348.47 287.17,348.45 279.34,344.03 C277.84,343.18 276.37,342.35 274.92,341.53 C280.86,344.77 282.93,345.45 284.00,344.67 C284.77,344.10 285.53,343.56 285.77,343.41 C286.69,344.10 287.28,344.64 287.53,345.04 C288.24,346.19 294.00,341.49 294.00,339.76 C294.00,339.29 291.60,333.86 288.67,327.70 C285.74,321.54 280.23,309.65 276.42,301.27 C269.74,286.58 269.39,286.04 266.50,286.01 C261.06,285.97 256.06,283.96 252.65,280.45 C250.81,278.55 248.71,277.00 248.00,277.00 C247.28,277.00 238.49,279.56 228.46,282.69 L 210.22 288.38 L 209.71 293.44 C209.43,296.22 209.49,298.80 209.85,299.16 C210.76,300.09 257.57,327.34 270.11,334.29 C268.62,333.50 267.58,333.00 267.39,333.00 C267.04,333.00 267.32,333.69 268.02,334.52 C269.78,336.65 268.60,337.45 266.62,335.48 C265.73,334.59 264.99,334.23 264.98,334.68 C264.98,335.13 264.49,334.83 263.91,334.00 C263.15,332.93 262.95,332.89 263.21,333.86 C263.37,334.45 266.16,336.44 269.89,338.67 C254.63,329.99 241.57,322.35 221.19,310.24 L 206.89 301.74 L 204.10 304.41 C202.57,305.87 199.77,307.50 197.89,308.02 L 194.46 308.97 L 192.23 324.73 C186.66,364.17 185.00,376.67 185.00,379.08 C185.00,380.84 185.76,382.03 187.35,382.75 C188.64,383.34 190.78,385.19 192.10,386.85 C194.78,390.25 195.64,390.48 199.68,388.90 C201.23,388.30 219.38,381.99 240.00,374.88 C260.62,367.77 278.92,361.29 280.65,360.48 C282.04,359.83 283.53,359.27 284.39,359.08 C283.92,359.37 283.36,359.62 282.70,359.86 C280.94,360.47 280.48,360.80 281.68,360.60 C283.26,360.33 283.70,360.62 283.28,361.70 C282.86,362.81 283.35,363.10 285.26,362.85 C285.46,362.82 285.66,362.81 285.87,362.82 C285.05,362.97 284.00,363.23 282.56,363.61 C279.64,364.37 275.51,365.73 273.38,366.63 C271.24,367.53 261.40,371.09 251.50,374.54 C241.60,378.00 225.06,383.86 214.75,387.57 L 196.00 394.31 L 196.00 397.59 C196.00,399.39 195.56,402.03 195.02,403.45 C194.10,405.87 194.46,406.34 200.65,410.77 C204.30,413.37 213.85,420.31 221.89,426.20 ZM 101.00 316.68 C101.00,320.41 102.64,319.43 108.42,312.25 C111.40,308.54 117.27,301.23 121.46,296.00 C132.93,281.71 164.19,243.10 166.71,240.12 C167.93,238.68 168.94,236.69 168.96,235.70 C168.98,234.70 165.91,225.93 162.13,216.20 C158.35,206.46 152.19,190.27 148.44,180.20 L 141.63 161.90 L 134.64 162.50 L 130.83 180.00 C125.92,202.56 120.93,225.09 109.91,274.43 C105.01,296.38 101.00,315.40 101.00,316.68 ZM 162.58 382.72 C164.74,384.49 166.83,385.95 167.23,385.97 C167.63,385.98 169.43,385.10 171.23,384.00 C173.03,382.91 175.46,382.01 176.63,382.00 C177.80,382.00 179.19,381.44 179.73,380.75 C180.55,379.70 187.47,332.82 189.61,313.86 C190.20,308.65 190.08,308.16 188.06,307.52 C186.85,307.14 184.33,305.48 182.46,303.83 L 179.05 300.83 L 157.27 309.87 C145.30,314.83 129.88,321.30 123.00,324.24 L 110.50 329.58 L 110.26 333.54 C110.13,335.72 109.90,338.58 109.76,339.90 C109.54,341.95 112.97,344.92 134.08,360.90 C147.60,371.13 160.43,380.95 162.58,382.72 ZM 198.00 167.10 C202.12,168.63 205.89,169.91 206.36,169.94 C206.83,169.97 208.10,168.87 209.19,167.48 C213.67,161.79 223.47,160.16 229.85,164.05 L 233.21 166.10 L 236.03 163.80 C237.58,162.53 251.59,150.85 267.17,137.83 C282.75,124.81 296.59,113.29 297.92,112.24 C299.49,110.99 300.11,109.73 299.70,108.66 C299.54,108.25 299.49,107.88 299.31,107.59 C298.15,105.80 291.75,107.38 221.44,124.83 C217.27,125.86 212.88,126.95 208.25,128.10 C179.51,135.23 155.33,141.32 154.50,141.64 C153.54,142.01 153.00,143.55 153.00,145.91 C153.00,149.27 153.33,149.72 156.75,150.92 C158.81,151.65 167.25,154.96 175.50,158.28 C183.75,161.60 193.88,165.56 198.00,167.10 ZM 200.73 275.93 L 209.50 284.51 L 227.55 278.93 C237.48,275.87 246.15,273.03 246.80,272.62 C247.46,272.21 248.00,270.30 248.00,268.38 C248.00,264.35 249.23,261.59 252.67,257.90 L 255.09 255.29 L 246.99 237.90 C242.54,228.33 236.14,214.54 232.79,207.25 C227.24,195.21 226.44,194.00 224.09,194.02 C220.37,194.04 219.34,194.99 218.11,199.58 C217.10,203.34 209.58,236.28 203.35,264.21 ZM 144.22 440.75 C144.80,441.46 147.50,442.00 150.45,442.00 L 155.65 442.00 L 162.99 426.88 C169.02,414.46 170.12,411.46 169.15,410.13 C164.34,403.50 163.92,402.42 164.27,397.50 C164.46,394.75 164.82,391.85 165.06,391.06 C165.59,389.33 108.58,346.00 105.77,346.00 C104.76,346.00 103.71,346.59 103.43,347.32 C102.90,348.70 109.33,363.97 127.50,404.50 C133.42,417.70 139.37,430.98 140.72,434.00 C142.08,437.02 143.65,440.06 144.22,440.75 ZM 171.58 230.13 C171.88,230.61 172.51,231.00 172.98,231.00 C173.80,231.00 185.66,217.20 199.18,200.50 C200.13,199.33 200.99,198.27 201.77,197.31 C207.51,190.25 208.85,188.60 208.55,187.36 C208.41,186.81 207.96,186.34 207.42,185.53 C206.50,184.12 205.69,180.97 205.62,178.53 L 205.50 174.10 L 193.50 169.42 C181.44,164.72 176.26,162.73 161.50,157.07 C157.10,155.39 152.82,154.03 152.00,154.06 C151.18,154.09 149.40,155.50 148.06,157.19 L 145.63 160.27 L 147.42 165.38 C150.78,174.96 171.04,229.26 171.58,230.13 ZM 107.44 323.63 C107.81,325.08 108.61,325.97 109.29,325.68 C140.64,312.75 167.78,301.38 172.13,299.36 L 177.77 296.74 L 177.77 292.02 C177.77,286.84 178.97,283.86 182.68,279.88 L 185.12 277.26 L 180.19 264.38 C177.48,257.30 174.47,249.36 173.50,246.75 C172.52,244.14 171.39,242.00 170.98,242.00 C170.56,242.00 167.61,245.26 164.40,249.25 C161.20,253.24 149.79,267.30 139.04,280.51 C109.38,316.95 106.69,320.62 107.44,323.63 ZM 165.47 452.75 C165.83,453.99 166.22,455.00 166.32,455.00 C171.56,454.86 231.55,447.82 232.03,447.28 C232.41,446.85 233.21,445.04 233.81,443.26 C234.82,440.23 234.68,439.86 231.69,437.65 C223.83,431.81 195.43,411.77 193.75,410.87 C192.37,410.13 190.74,410.43 187.38,412.06 C184.06,413.67 181.70,414.11 178.48,413.75 L 174.09 413.26 L 166.70 428.38 L 159.31 443.50 L 162.06 447.00 C163.56,448.92 165.10,451.51 165.47,452.75 ZM 187.34 272.28 C188.72,275.57 189.30,276.00 192.39,276.00 C194.31,276.00 196.14,275.58 196.45,275.08 C197.05,274.12 198.59,267.59 206.98,230.50 C209.71,218.40 212.80,205.02 213.83,200.77 C214.87,196.52 215.48,192.81 215.19,192.52 C214.90,192.24 213.89,192.00 212.94,192.00 C211.09,192.00 209.72,193.47 198.00,208.01 C193.88,213.12 186.80,221.71 182.28,227.09 L 174.06 236.88 L 179.93 252.72 C183.15,261.43 186.49,270.23 187.34,272.28 ZM 473.96 562.47 C464.32,564.32 413.95,565.76 417.50,564.09 C418.60,563.57 428.21,563.11 438.85,563.07 C451.76,563.02 459.90,562.55 463.35,561.64 C466.18,560.89 470.75,559.76 473.50,559.12 C481.52,557.27 500.99,548.98 507.40,544.68 C519.45,536.60 530.92,525.81 539.33,514.67 C543.95,508.54 550.98,494.23 554.39,484.00 C558.17,472.69 558.85,464.79 559.50,425.00 C559.83,404.92 560.37,387.15 560.69,385.50 C562.21,377.76 562.86,388.88 562.93,423.76 C563.01,465.08 562.24,473.43 556.92,489.36 C551.14,506.69 538.54,525.37 524.81,536.99 C510.38,549.20 490.09,559.37 473.96,562.47 ZM 115.00 559.49 C115.00,562.32 97.96,556.14 84.76,548.51 C54.16,530.84 35.23,500.94 31.07,463.72 C29.87,452.94 29.63,405.71 30.74,399.50 L 31.46 395.50 L 32.19 401.00 C32.59,404.02 33.36,420.23 33.90,437.00 C35.08,473.87 36.28,480.78 44.35,497.48 C57.55,524.76 76.15,541.65 109.25,556.41 C112.41,557.82 115.00,559.20 115.00,559.49 ZM 547.45 88.84 C548.38,90.68 548.96,92.37 548.73,92.60 C548.25,93.08 540.54,85.17 533.03,76.50 C522.26,64.05 510.26,55.31 492.31,46.83 C480.92,41.44 478.40,39.33 484.60,40.33 C490.92,41.35 504.84,47.71 513.99,53.76 C527.58,62.75 541.72,77.57 547.45,88.84 ZM 57.97 79.78 C50.69,88.15 47.56,90.72 46.58,89.14 C44.69,86.07 66.20,63.04 79.31,54.12 C87.49,48.55 102.28,41.60 108.40,40.45 C115.02,39.21 112.27,41.83 101.75,46.79 C83.32,55.49 71.10,64.69 57.97,79.78 ZM 261.06 467.93 L 261.12 468.00 C262.80,469.92 263.46,470.39 262.59,469.03 C259.66,464.47 261.02,464.46 265.11,469.00 C269.66,474.05 269.40,472.98 264.21,465.27 L 260.70 460.04 L 265.50 450.80 L 272.19 451.15 L 265.50 450.81 L 263.11 455.40 L 260.73 459.99 L 265.55 467.25 C267.95,470.86 272.75,477.69 276.73,483.16 C274.45,480.43 273.69,480.43 274.56,483.25 C274.61,483.43 274.66,483.60 274.71,483.75 C274.90,484.35 275.03,484.76 274.94,484.82 C274.74,484.94 273.56,483.55 269.90,479.23 L 269.90 479.23 C269.45,478.70 268.96,478.12 268.43,477.50 C266.10,474.75 268.95,479.05 278.52,492.70 C279.31,493.82 279.95,494.88 280.43,495.86 C279.91,494.84 279.21,493.70 278.33,492.46 C276.23,489.47 272.02,483.49 269.00,479.16 C266.28,475.26 262.91,470.50 261.06,467.93 ZM 288.94 373.38 C287.43,376.16 285.48,379.67 283.36,383.38 C278.61,391.70 274.53,398.84 274.30,399.25 C274.07,399.66 274.12,400.00 274.41,400.00 C274.70,400.00 275.61,398.76 276.43,397.25 C278.50,393.44 278.54,397.06 276.47,401.05 C274.93,404.04 272.30,405.26 273.36,402.50 C274.50,399.54 273.12,401.09 270.59,405.62 C269.17,408.16 268.68,409.68 269.50,409.00 C271.58,407.27 271.54,409.78 269.44,412.78 C267.39,415.71 265.57,415.69 267.09,412.75 C268.54,409.92 268.04,410.34 266.70,412.37 C270.43,405.77 275.24,397.35 279.44,390.06 C283.21,383.51 286.66,377.45 288.94,373.38 ZM 346.00 222.00 C346.00,220.75 347.06,220.75 349.00,222.00 C350.21,222.78 350.07,222.97 348.25,222.98 C347.01,222.99 346.00,222.55 346.00,222.00 ZM 347.76 454.93 C347.92,454.96 348.00,454.99 348.00,455.02 C348.00,455.37 345.41,458.08 342.25,461.04 C340.23,462.93 335.66,467.31 330.43,472.34 C338.79,464.17 346.54,456.44 347.76,454.93 ZM 370.41 223.36 L 367.70 226.75 L 359.09 223.77 C364.30,225.38 367.84,226.34 368.01,226.12 C368.26,225.82 369.28,224.64 370.41,223.36 ZM 297.78 448.25 C304.00,448.52 310.76,448.80 317.00,449.05 C325.53,449.39 333.77,449.74 339.57,450.00 C331.28,449.75 318.31,449.18 297.78,448.25 ZM 354.14 449.63 C355.95,448.10 359.61,444.78 367.34,437.66 C360.39,444.08 355.70,448.44 355.24,448.90 C354.95,449.19 354.67,449.44 354.14,449.63 ZM 290.00 364.50 C291.16,365.35 292.00,366.40 292.00,367.29 C292.00,367.36 291.93,367.56 291.79,367.87 C291.78,367.02 291.08,365.65 290.06,364.56 ZM 288.78 494.03 C288.31,494.15 287.87,494.28 287.45,494.42 C285.86,494.97 284.76,494.11 281.28,489.27 C284.92,493.99 286.17,494.87 287.50,494.40 C287.89,494.27 288.32,494.14 288.78,494.03 ZM 306.90 338.42 L 310.04 338.39 C309.26,338.80 308.57,338.72 307.60,338.54 C307.34,338.50 307.11,338.46 306.90,338.42 ZM 365.51 237.58 C364.51,238.21 362.84,238.74 360.23,239.46 C359.65,239.62 359.07,239.79 358.47,239.95 C361.57,239.06 364.24,238.15 365.51,237.58 ZM 317.31 485.04 C312.54,489.66 309.73,492.31 307.92,493.72 C308.07,493.59 308.24,493.45 308.42,493.30 C309.85,492.09 313.17,488.99 317.31,485.04 ZM 372.59 219.40 L 373.00 220.11 L 372.06 221.28 C372.54,220.52 372.71,219.92 372.59,219.40 ZM 281.58 499.87 C281.53,501.22 280.79,502.00 279.33,502.00 C279.28,502.00 279.22,501.99 279.13,501.98 C280.66,501.85 281.47,501.12 281.58,499.87 ZM 303.47 494.34 C303.77,494.56 304.04,494.74 304.28,494.88 C304.04,494.76 303.80,494.60 303.53,494.43 C302.76,493.92 301.38,493.58 299.70,493.38 C301.45,493.55 302.84,493.87 303.47,494.34 ZM 366.55 233.24 C366.86,234.72 366.95,235.72 366.57,236.49 C366.79,235.70 366.80,234.45 366.55,233.24 ZM 266.09 446.80 L 266.08 446.76 L 274.65 447.19 ZM 312.19 367.21 C312.98,366.46 313.87,365.54 314.75,364.54 L 316.57 362.48 L 315.21 364.06 C314.15,365.30 313.16,366.34 312.19,367.21 ZM 356.46 240.52 C352.47,241.64 348.22,242.85 344.01,244.06 C349.16,242.56 353.75,241.25 356.38,240.54 ZM 281.91 340.88 C279.76,339.62 277.04,338.07 274.52,336.68 C277.49,338.29 279.95,339.69 281.91,340.88 ZM 344.45 248.12 C345.84,247.71 347.20,247.30 348.50,246.91 C356.68,244.46 361.41,243.09 364.33,242.52 C361.41,243.09 356.68,244.46 348.50,246.92 C347.37,247.26 346.00,247.66 344.45,248.12 ZM 316.81 329.76 L 319.98 324.94 C322.18,321.59 324.48,318.11 326.51,315.06 C324.43,318.20 322.04,321.81 319.75,325.30 C318.64,326.98 317.67,328.46 316.81,329.76 ZM 257.67 463.28 C257.89,463.41 258.02,463.57 258.03,463.75 C258.03,463.75 258.03,463.76 258.03,463.77 ZM 365.69 230.98 C366.10,231.52 366.31,232.15 366.50,232.99 C366.31,232.14 366.10,231.51 365.69,230.98 Z" fill="rgb(39,103,165)"/>
<path d="M 184.00 567.58 C174.53,569.12 141.37,569.30 129.00,567.88 C115.11,566.28 90.00,557.35 90.00,554.00 C90.00,552.69 82.82,548.85 81.40,549.40 C78.56,550.49 63.11,538.37 54.50,528.30 C44.82,516.98 34.82,498.72 36.66,495.74 C37.04,495.13 36.83,494.99 36.15,495.40 C35.01,496.11 34.52,494.40 34.83,490.75 C34.91,489.79 34.50,489.00 33.91,489.00 C33.25,489.00 33.08,487.89 33.47,486.12 C33.87,484.33 33.61,482.73 32.80,481.87 C32.09,481.12 31.44,479.15 31.36,477.50 C31.28,475.85 30.78,470.67 30.24,466.00 C29.62,460.67 29.38,397.17 29.59,295.50 C29.93,127.97 29.81,133.65 33.58,112.75 C33.96,110.69 34.71,109.00 35.25,109.00 C35.79,109.00 36.02,107.89 35.76,106.53 C35.50,105.17 35.67,104.30 36.14,104.59 C36.62,104.88 37.00,103.97 37.00,102.56 C37.00,101.15 37.38,100.00 37.85,100.00 C38.32,100.00 40.86,96.15 43.50,91.45 C46.14,86.75 49.58,81.29 51.15,79.31 C52.72,77.34 54.01,75.45 54.03,75.11 C54.11,73.64 69.80,58.07 72.66,56.64 C74.39,55.76 76.47,54.38 77.28,53.58 C82.51,48.35 99.71,40.95 114.96,37.37 C118.51,36.54 121.89,35.56 122.46,35.19 C126.15,32.80 134.03,32.10 155.50,32.23 C171.66,32.33 175.82,32.56 169.50,33.00 C164.55,33.34 208.43,33.69 267.00,33.77 C325.58,33.86 380.69,33.53 389.49,33.04 C401.45,32.38 405.69,32.45 406.31,33.33 C406.95,34.21 407.28,34.20 407.66,33.25 C408.05,32.29 414.77,32.00 436.48,32.00 C461.70,32.00 464.85,32.18 465.41,33.63 C465.92,34.95 466.94,35.13 470.94,34.60 C473.93,34.21 476.10,34.35 476.48,34.98 C476.83,35.54 478.63,36.00 480.48,36.00 C487.48,36.00 505.13,43.46 518.00,51.85 C541.59,67.23 564.29,103.58 563.99,125.50 C563.90,132.03 563.52,269.95 563.52,296.50 C563.51,359.39 564.45,460.57 565.00,457.00 C565.56,453.41 565.73,454.43 565.84,462.00 C565.98,472.44 564.57,479.87 559.94,492.94 C550.45,519.77 529.81,542.44 502.50,556.04 C488.16,563.17 476.85,566.53 461.92,568.10 C449.09,569.44 421.52,568.78 412.28,566.92 C407.46,565.94 403.39,565.91 394.28,566.75 C386.58,567.47 379.21,567.54 373.00,566.94 C367.77,566.45 325.02,566.08 278.00,566.12 C210.36,566.19 190.72,566.49 184.00,567.58 ZM 156.00 559.92 C172.23,560.24 246.93,560.38 322.00,560.24 C469.97,559.95 464.88,560.14 482.50,554.43 C500.69,548.54 514.58,539.57 529.01,524.38 C538.77,514.10 544.78,504.73 550.14,491.39 C557.20,473.87 557.50,470.37 558.50,395.00 C559.43,325.02 559.09,148.16 558.01,136.91 C556.25,118.63 548.66,98.04 539.06,85.47 C531.32,75.33 520.45,64.51 513.00,59.53 C498.68,49.95 481.71,43.03 467.00,40.77 C455.23,38.96 137.29,39.03 126.50,40.85 C111.98,43.29 94.77,50.33 81.84,59.11 C62.81,72.03 44.87,95.92 39.42,115.58 C38.59,118.60 37.89,120.89 37.32,123.20 C34.48,134.57 34.50,146.65 34.68,249.99 C34.69,257.35 34.70,265.18 34.71,273.50 C34.95,422.69 35.37,456.42 37.16,468.00 C43.39,508.40 69.16,539.28 109.24,554.37 C121.01,558.79 125.41,559.32 156.00,559.92 ZM 473.96 562.47 C490.09,559.37 510.38,549.20 524.81,536.99 C538.54,525.37 551.14,506.69 556.92,489.36 C562.24,473.43 563.01,465.08 562.93,423.76 C562.86,388.88 562.21,377.76 560.69,385.50 C560.37,387.15 559.83,404.92 559.50,425.00 C558.85,464.79 558.17,472.69 554.39,484.00 C550.98,494.23 543.95,508.54 539.33,514.67 C530.92,525.81 519.45,536.60 507.40,544.68 C500.99,548.98 481.52,557.27 473.50,559.12 C470.75,559.76 466.18,560.89 463.35,561.64 C459.90,562.55 451.76,563.02 438.85,563.07 C428.21,563.11 418.60,563.57 417.50,564.09 C413.95,565.76 464.32,564.32 473.96,562.47 ZM 115.00 559.49 C115.00,559.20 112.41,557.82 109.25,556.41 C76.15,541.65 57.55,524.76 44.35,497.48 C36.28,480.78 35.08,473.87 33.90,437.00 C33.36,420.23 32.59,404.02 32.19,401.00 L 31.46 395.50 L 30.74 399.50 C29.63,405.71 29.87,452.94 31.07,463.72 C35.23,500.94 54.16,530.84 84.76,548.51 C97.96,556.14 115.00,562.32 115.00,559.49 ZM 547.45 88.84 C541.72,77.57 527.58,62.75 513.99,53.76 C504.84,47.71 490.92,41.35 484.60,40.33 C478.40,39.33 480.92,41.44 492.31,46.83 C510.26,55.31 522.26,64.05 533.03,76.50 C540.54,85.17 548.25,93.08 548.73,92.60 C548.96,92.37 548.38,90.68 547.45,88.84 ZM 57.97 79.78 C71.10,64.69 83.32,55.49 101.75,46.79 C112.27,41.83 115.02,39.21 108.40,40.45 C102.28,41.60 87.49,48.55 79.31,54.12 C66.20,63.04 44.69,86.07 46.58,89.14 C47.56,90.72 50.69,88.15 57.97,79.78 Z" fill="rgb(181,202,210)"/>
<path d="M 0.00 298.50 L 0.00 0.00 L 298.50 0.00 L 597.00 0.00 L 597.00 298.50 L 597.00 597.00 L 298.50 597.00 L 0.00 597.00 L 0.00 298.50 ZM 184.00 567.58 C190.72,566.49 210.36,566.19 278.00,566.12 C325.02,566.08 367.77,566.45 373.00,566.94 C379.21,567.54 386.58,567.47 394.28,566.75 C403.39,565.91 407.46,565.94 412.28,566.92 C421.52,568.78 449.09,569.44 461.92,568.10 C476.85,566.53 488.16,563.17 502.50,556.04 C529.81,542.44 550.45,519.77 559.94,492.94 C564.57,479.87 565.98,472.44 565.84,462.00 C565.73,454.43 565.56,453.41 565.00,457.00 C564.45,460.57 563.51,359.39 563.52,296.50 C563.52,269.95 563.90,132.03 563.99,125.50 C564.29,103.58 541.59,67.23 518.00,51.85 C505.13,43.46 487.48,36.00 480.48,36.00 C478.63,36.00 476.83,35.54 476.48,34.98 C476.10,34.35 473.93,34.21 470.94,34.60 C466.94,35.13 465.92,34.95 465.41,33.63 C464.85,32.18 461.70,32.00 436.48,32.00 C414.77,32.00 408.05,32.29 407.66,33.25 C407.28,34.20 406.95,34.21 406.31,33.33 C405.69,32.45 401.45,32.38 389.49,33.04 C380.69,33.53 325.58,33.86 267.00,33.77 C208.43,33.69 164.55,33.34 169.50,33.00 C175.82,32.56 171.66,32.33 155.50,32.23 C134.03,32.10 126.15,32.80 122.46,35.19 C121.89,35.56 118.51,36.54 114.96,37.37 C99.71,40.95 82.51,48.35 77.28,53.58 C76.47,54.38 74.39,55.76 72.66,56.64 C69.80,58.07 54.11,73.64 54.03,75.11 C54.01,75.45 52.72,77.34 51.15,79.31 C49.58,81.29 46.14,86.75 43.50,91.45 C40.86,96.15 38.32,100.00 37.85,100.00 C37.38,100.00 37.00,101.15 37.00,102.56 C37.00,103.97 36.62,104.88 36.14,104.59 C35.67,104.30 35.50,105.17 35.76,106.53 C36.02,107.89 35.79,109.00 35.25,109.00 C34.71,109.00 33.96,110.69 33.58,112.75 C29.81,133.65 29.93,127.97 29.59,295.50 C29.38,397.17 29.62,460.67 30.24,466.00 C30.78,470.67 31.28,475.85 31.36,477.50 C31.44,479.15 32.09,481.12 32.80,481.87 C33.61,482.73 33.87,484.33 33.47,486.12 C33.08,487.89 33.25,489.00 33.91,489.00 C34.50,489.00 34.91,489.79 34.83,490.75 C34.52,494.40 35.01,496.11 36.15,495.40 C36.83,494.99 37.04,495.13 36.66,495.74 C34.82,498.72 44.82,516.98 54.50,528.30 C63.11,538.37 78.56,550.49 81.40,549.40 C82.82,548.85 90.00,552.69 90.00,554.00 C90.00,557.35 115.11,566.28 129.00,567.88 C141.37,569.30 174.53,569.12 184.00,567.58 ZM 156.00 559.92 C125.41,559.32 121.01,558.79 109.24,554.37 C69.16,539.28 43.39,508.40 37.16,468.00 C35.37,456.42 34.95,422.69 34.71,273.50 C34.48,124.59 34.19,134.49 39.42,115.58 C44.87,95.92 62.81,72.03 81.84,59.11 C94.77,50.33 111.98,43.29 126.50,40.85 C137.29,39.03 455.23,38.96 467.00,40.77 C481.71,43.03 498.68,49.95 513.00,59.53 C520.45,64.51 531.32,75.33 539.06,85.47 C548.66,98.04 556.25,118.63 558.01,136.91 C559.09,148.16 559.43,325.02 558.50,395.00 C557.50,470.37 557.20,473.87 550.14,491.39 C544.78,504.73 538.77,514.10 529.01,524.38 C514.58,539.57 500.69,548.54 482.50,554.43 C464.88,560.14 469.97,559.95 322.00,560.24 C246.93,560.38 172.23,560.24 156.00,559.92 ZM 301.96 524.02 C306.80,521.55 309.88,517.31 310.82,511.81 C311.50,507.80 311.82,507.47 316.52,505.87 C322.32,503.91 380.66,485.58 389.50,482.95 C392.80,481.97 405.56,477.98 417.85,474.08 C430.15,470.19 440.88,467.00 441.71,467.00 C442.54,467.00 444.53,468.11 446.15,469.47 C450.65,473.26 456.31,474.64 460.81,473.06 C468.02,470.53 473.00,463.80 473.00,456.60 C473.00,451.33 471.36,447.85 467.07,444.00 C463.21,440.53 463.18,440.45 464.02,435.50 C466.14,423.03 472.33,392.46 486.30,325.60 L 491.50 300.70 L 496.02 299.39 C498.68,298.61 501.94,296.63 503.95,294.55 C506.88,291.53 507.43,290.19 507.79,285.18 C508.55,274.68 502.09,267.00 492.50,267.00 C488.69,267.00 482.22,269.82 480.06,272.43 C478.28,274.57 476.75,274.42 471.04,271.52 C466.57,269.26 459.10,265.87 414.50,245.93 L 399.50 239.23 L 398.96 233.86 C397.88,223.10 391.79,217.57 381.65,218.17 L 376.50 218.48 L 373.20 211.99 C371.39,208.42 366.48,198.98 362.30,191.00 C352.55,172.42 345.24,158.26 332.91,134.06 L 323.00 114.61 L 325.38 112.06 C328.88,108.30 330.00,105.62 330.00,101.03 C330.00,91.84 324.62,85.96 315.52,85.21 C308.57,84.63 302.79,87.53 300.01,92.97 C298.91,95.14 298.00,97.78 298.00,98.84 C298.00,99.89 297.40,101.25 296.68,101.85 C295.95,102.46 287.74,104.78 278.43,107.00 C254.32,112.77 212.03,123.11 180.04,131.05 L 152.58 137.87 L 148.35 133.97 C143.53,129.52 140.61,128.52 134.78,129.30 C127.12,130.33 121.00,137.17 121.00,144.70 C121.00,150.07 122.79,153.73 127.41,157.79 L 130.93 160.88 L 121.37 204.19 C116.12,228.01 108.76,261.45 105.01,278.50 C95.79,320.45 97.27,316.08 91.81,317.47 C82.46,319.84 78.01,325.05 78.00,333.60 C78.00,342.69 85.14,350.00 94.04,350.00 C99.45,350.00 98.53,348.65 107.97,370.41 C111.92,379.52 122.49,403.08 138.57,438.67 C140.70,443.38 140.76,443.95 139.29,445.17 C136.92,447.13 134.05,454.01 134.02,457.78 C133.96,467.62 143.48,476.26 152.51,474.56 C154.37,474.21 157.71,472.41 159.94,470.55 L 163.98 467.18 L 169.74 468.98 C174.89,470.60 218.21,485.44 244.50,494.60 C250.00,496.52 259.96,499.95 266.64,502.22 L 278.78 506.36 L 279.23 511.05 C279.80,516.99 283.10,521.69 288.40,524.09 C293.68,526.49 297.15,526.47 301.96,524.02 ZM 309.91 500.83 C308.85,498.86 309.54,497.91 317.63,490.12 C322.51,485.42 332.68,475.54 340.24,468.16 L 353.99 454.74 L 383.24 455.93 C449.51,458.62 451.60,459.20 425.24,467.48 C417.13,470.02 399.25,475.65 385.50,479.98 C371.75,484.31 357.58,488.74 354.00,489.84 C350.42,490.93 339.55,494.34 329.84,497.41 C320.12,500.49 311.93,503.00 311.62,503.00 C311.32,503.00 310.55,502.03 309.91,500.83 ZM 275.79 501.45 C275.49,501.15 260.22,495.80 241.87,489.55 C163.78,462.99 166.00,463.81 166.00,461.34 C166.00,458.60 163.70,459.01 202.92,454.80 C225.62,452.36 233.44,451.83 233.74,452.72 C234.82,455.95 238.91,460.69 242.02,462.31 C244.70,463.71 246.87,464.00 251.50,463.58 L 257.50 463.04 L 260.50 467.16 C262.15,469.43 265.98,474.83 269.00,479.16 C272.02,483.49 276.23,489.47 278.33,492.46 C282.58,498.47 282.68,502.00 278.60,502.00 C277.35,502.00 276.09,501.75 275.79,501.45 ZM 303.47 494.34 C301.47,492.85 291.86,492.89 287.50,494.40 C285.82,494.99 284.28,493.44 277.93,484.80 C273.77,479.13 268.20,471.24 265.55,467.25 L 260.73 459.99 L 263.11 455.40 L 265.50 450.81 L 277.00 451.39 C283.33,451.71 301.77,452.49 318.00,453.14 C334.23,453.78 347.69,454.47 347.92,454.66 C348.35,455.02 314.03,488.58 308.42,493.30 C305.73,495.56 305.26,495.66 303.47,494.34 ZM 165.47 452.75 C165.10,451.51 163.56,448.92 162.06,447.00 L 159.31 443.50 L 166.70 428.38 L 174.09 413.26 L 178.48 413.75 C181.70,414.11 184.06,413.67 187.38,412.06 C190.74,410.43 192.37,410.13 193.75,410.87 C195.43,411.77 223.83,431.81 231.69,437.65 C234.68,439.86 234.82,440.23 233.81,443.26 C233.21,445.04 232.41,446.85 232.03,447.28 C231.55,447.82 171.56,454.86 166.32,455.00 C166.22,455.00 165.83,453.99 165.47,452.75 ZM 423.50 453.91 C415.80,453.47 398.76,452.66 385.63,452.11 C372.50,451.55 361.58,450.91 361.36,450.69 C360.40,449.74 362.66,447.07 369.98,440.50 C376.81,434.38 402.67,410.64 414.43,399.71 C418.81,395.64 418.68,395.65 428.88,398.23 L 434.25 399.60 L 441.13 419.50 C444.91,430.45 448.00,440.03 448.00,440.78 C448.00,441.54 446.66,443.50 445.01,445.14 C443.37,446.79 441.65,449.56 441.20,451.31 C440.74,453.06 439.73,454.55 438.94,454.61 C438.15,454.67 431.20,454.35 423.50,453.91 ZM 347.50 450.38 C345.30,450.23 331.58,449.63 317.00,449.05 C302.42,448.46 285.01,447.71 278.29,447.37 L 266.08 446.76 L 264.49 441.96 C263.61,439.32 262.24,436.61 261.45,435.95 C258.74,433.71 258.71,433.77 275.81,405.00 C278.26,400.88 282.01,394.29 284.14,390.36 C286.27,386.44 289.58,380.61 291.51,377.42 C293.43,374.23 295.00,371.25 295.00,370.80 C295.00,370.35 297.40,370.26 300.32,370.61 C306.78,371.37 310.28,369.83 315.21,364.06 L 318.63 360.08 L 327.06 361.99 C334.73,363.74 355.43,368.20 397.99,377.30 L 413.48 380.61 L 414.10 384.05 C414.44,385.95 415.04,388.66 415.42,390.07 C416.07,392.45 413.84,394.76 386.40,420.07 C351.71,452.09 352.87,451.05 352.10,450.83 C351.77,450.73 349.70,450.53 347.50,450.38 ZM 144.22 440.75 C143.65,440.06 142.08,437.02 140.72,434.00 C139.37,430.98 133.42,417.70 127.50,404.50 C109.33,363.97 102.90,348.70 103.43,347.32 C103.71,346.59 104.76,346.00 105.77,346.00 C108.58,346.00 165.59,389.33 165.06,391.06 C164.82,391.85 164.46,394.75 164.27,397.50 C163.92,402.42 164.34,403.50 169.15,410.13 C170.12,411.46 169.02,414.46 162.99,426.88 L 155.65 442.00 L 150.45 442.00 C147.50,442.00 144.80,441.46 144.22,440.75 ZM 445.22 419.02 C437.74,397.29 437.39,396.00 438.91,396.00 C439.42,396.00 441.22,394.11 442.91,391.80 C447.05,386.18 447.29,378.19 443.50,372.60 C442.12,370.57 441.00,368.67 441.00,368.38 C441.00,368.08 443.64,363.71 446.87,358.67 C450.09,353.63 456.46,343.65 461.03,336.50 C483.41,301.44 485.21,298.91 486.42,300.87 C486.73,301.37 484.70,312.74 481.91,326.14 C475.19,358.42 459.02,438.30 459.01,439.25 C459.00,439.66 457.52,440.00 455.72,440.00 L 452.44 440.00 L 445.22 419.02 ZM 221.89 426.20 C213.85,420.31 204.30,413.37 200.65,410.77 C194.46,406.34 194.10,405.87 195.02,403.45 C195.56,402.03 196.00,399.39 196.00,397.59 L 196.00 394.31 L 214.75 387.57 C225.06,383.86 241.60,378.00 251.50,374.54 C261.40,371.09 271.24,367.53 273.38,366.63 C275.51,365.73 279.64,364.37 282.56,363.61 C287.70,362.27 287.93,362.30 290.06,364.56 C291.27,365.85 292.02,367.51 291.73,368.26 C291.44,369.01 285.91,378.82 279.44,390.06 C272.96,401.30 265.05,415.23 261.85,421.00 L 256.04 431.50 L 249.03 432.06 C243.72,432.49 241.46,433.15 239.70,434.81 C238.42,436.02 237.18,436.98 236.94,436.95 C236.70,436.92 229.92,432.08 221.89,426.20 ZM 192.10 386.85 C190.78,385.19 188.64,383.34 187.35,382.75 C185.76,382.03 185.00,380.84 185.00,379.08 C185.00,376.67 186.66,364.17 192.23,324.73 L 194.46 308.97 L 197.89 308.02 C199.77,307.50 202.57,305.87 204.10,304.41 L 206.89 301.74 L 221.19 310.24 C245.62,324.76 259.55,332.86 279.34,344.03 C287.17,348.45 287.18,348.47 286.60,351.98 C286.28,353.92 286.02,356.29 286.01,357.25 C286.00,358.21 285.51,359.00 284.90,359.00 C284.30,359.00 282.38,359.67 280.65,360.48 C278.92,361.29 260.62,367.77 240.00,374.88 C219.38,381.99 201.23,388.30 199.68,388.90 C195.64,390.48 194.78,390.25 192.10,386.85 ZM 162.58 382.72 C160.43,380.95 147.60,371.13 134.08,360.90 C112.97,344.92 109.54,341.95 109.76,339.90 C109.90,338.58 110.13,335.72 110.26,333.54 L 110.50 329.58 L 123.00 324.24 C129.88,321.30 145.30,314.83 157.27,309.87 L 179.05 300.83 L 182.46 303.83 C184.33,305.48 186.85,307.14 188.06,307.52 C190.08,308.16 190.20,308.65 189.61,313.86 C187.47,332.82 180.55,379.70 179.73,380.75 C179.19,381.44 177.80,382.00 176.63,382.00 C175.46,382.01 173.03,382.91 171.23,384.00 C169.43,385.10 167.63,385.98 167.23,385.97 C166.83,385.95 164.74,384.49 162.58,382.72 ZM 403.00 374.48 C399.98,373.79 389.85,371.57 380.50,369.55 C371.15,367.53 356.08,364.28 347.00,362.32 C337.92,360.36 328.02,358.21 325.00,357.55 C319.94,356.44 319.50,356.12 319.50,353.56 C319.50,351.23 320.16,350.53 323.50,349.25 C367.93,332.30 405.12,318.83 406.27,319.27 C406.98,319.55 408.36,322.41 409.34,325.63 C410.32,328.86 413.57,339.00 416.56,348.16 C419.55,357.32 422.00,365.25 422.00,365.77 C422.00,366.29 420.42,368.39 418.50,370.43 C416.58,372.47 415.00,374.56 415.00,375.07 C415.00,376.30 409.82,376.04 403.00,374.48 ZM 426.07 364.13 C425.52,363.09 423.95,358.48 422.58,353.88 C421.21,349.27 418.02,339.26 415.47,331.63 C412.46,322.60 411.19,317.41 411.83,316.77 C412.72,315.88 426.41,310.64 460.00,298.32 C473.62,293.33 478.65,292.54 480.31,295.14 C481.14,296.45 479.93,299.00 474.35,307.64 C470.49,313.61 462.65,325.92 456.92,335.00 C435.18,369.45 437.95,366.00 431.99,366.00 C428.20,366.00 426.84,365.57 426.07,364.13 ZM 315.53 345.04 C314.56,343.96 314.00,342.45 314.29,341.70 C314.81,340.33 327.42,321.07 358.78,273.71 C373.48,251.52 375.43,249.00 377.35,249.64 C378.53,250.03 381.02,250.61 382.88,250.92 C385.85,251.43 386.43,252.05 387.66,256.00 C388.43,258.48 392.79,272.42 397.36,287.00 L 405.66 313.50 L 403.45 314.72 C402.23,315.39 387.79,320.94 371.36,327.04 C354.94,333.14 338.58,339.28 335.00,340.70 C329.38,342.92 318.06,347.00 317.50,347.00 C317.39,347.00 316.51,346.12 315.53,345.04 ZM 287.53 345.04 C286.64,343.61 281.50,340.39 271.93,335.28 C263.12,330.57 210.81,300.14 209.85,299.16 C209.49,298.80 209.43,296.22 209.71,293.44 L 210.22 288.38 L 228.46 282.69 C238.49,279.56 247.28,277.00 248.00,277.00 C248.71,277.00 250.81,278.55 252.65,280.45 C256.06,283.96 261.06,285.97 266.50,286.01 C269.39,286.04 269.74,286.58 276.42,301.27 C280.23,309.65 285.74,321.54 288.67,327.70 C291.60,333.86 294.00,339.29 294.00,339.76 C294.00,341.49 288.24,346.19 287.53,345.04 ZM 295.31 335.01 C294.55,333.08 293.09,329.70 292.07,327.50 C284.15,310.50 273.00,284.49 273.00,283.01 C273.00,282.42 273.69,281.67 274.54,281.35 C276.65,280.54 279.26,275.31 279.94,270.54 L 280.50 266.58 L 307.50 258.85 C322.35,254.60 340.80,249.23 348.50,246.92 C365.47,241.82 367.60,241.42 369.51,243.01 C371.89,244.98 371.32,246.93 366.02,254.95 C363.29,259.10 355.20,271.50 348.06,282.50 C340.91,293.50 333.66,304.52 331.94,307.00 C330.22,309.48 324.84,317.55 319.98,324.94 L 311.14 338.39 L 303.92 338.45 L 296.69 338.51 L 295.31 335.01 ZM 107.44 323.63 C106.69,320.62 109.38,316.95 139.04,280.51 C149.79,267.30 161.20,253.24 164.40,249.25 C167.61,245.26 170.56,242.00 170.98,242.00 C171.39,242.00 172.52,244.14 173.50,246.75 C174.47,249.36 177.48,257.30 180.19,264.38 L 185.12 277.26 L 182.68 279.88 C178.97,283.86 177.77,286.84 177.77,292.02 L 177.77 296.74 L 172.13 299.36 C167.78,301.38 140.64,312.75 109.29,325.68 C108.61,325.97 107.81,325.08 107.44,323.63 ZM 101.00 316.68 C101.00,315.40 105.01,296.38 109.91,274.43 C120.93,225.09 125.92,202.56 130.83,180.00 L 134.64 162.50 L 138.13 162.20 L 141.63 161.90 L 148.44 180.20 C152.19,190.27 158.35,206.46 162.13,216.20 C165.91,225.93 168.98,234.70 168.96,235.70 C168.94,236.69 167.93,238.68 166.71,240.12 C164.19,243.10 132.93,281.71 121.46,296.00 C117.27,301.23 111.40,308.54 108.42,312.25 C102.64,319.43 101.00,320.41 101.00,316.68 ZM 409.15 310.25 C408.15,308.33 392.20,257.45 390.98,252.28 C390.31,249.41 390.58,248.80 393.55,246.53 C395.37,245.14 397.56,244.00 398.41,244.00 C399.26,244.00 407.95,247.55 417.73,251.90 C433.55,258.93 441.11,262.35 468.80,275.03 L 476.09 278.37 L 475.80 283.39 L 475.50 288.41 L 469.50 290.65 C443.42,300.37 411.47,312.00 410.84,312.00 C410.42,312.00 409.66,311.21 409.15,310.25 ZM 205.12 280.22 L 200.73 275.93 L 203.35 264.21 C209.58,236.28 217.10,203.34 218.11,199.58 C219.34,194.99 220.37,194.04 224.09,194.02 C226.44,194.00 227.24,195.21 232.79,207.25 C236.14,214.54 242.54,228.33 246.99,237.90 L 255.09 255.29 L 252.67 257.90 C249.23,261.59 248.00,264.35 248.00,268.38 C248.00,270.30 247.46,272.21 246.80,272.62 C246.15,273.03 237.48,275.87 227.55,278.93 L 209.50 284.51 L 205.12 280.22 ZM 187.34 272.28 C186.49,270.23 183.15,261.43 179.93,252.72 L 174.06 236.88 L 182.28 227.09 C186.80,221.71 193.88,213.12 198.00,208.01 C209.72,193.47 211.09,192.00 212.94,192.00 C213.89,192.00 214.90,192.24 215.19,192.52 C215.48,192.81 214.87,196.52 213.83,200.77 C212.80,205.02 209.71,218.40 206.98,230.50 C198.59,267.59 197.05,274.12 196.45,275.08 C196.14,275.58 194.31,276.00 192.39,276.00 C189.30,276.00 188.72,275.57 187.34,272.28 ZM 277.00 259.51 C274.00,255.38 268.10,252.77 262.67,253.16 L 258.69 253.45 L 250.77 236.47 C246.41,227.14 240.22,214.01 237.00,207.30 C229.30,191.19 229.45,191.90 232.92,188.58 L 235.85 185.77 L 250.67 190.79 C271.01,197.66 327.18,216.97 340.00,221.49 C345.77,223.53 353.95,226.28 358.17,227.61 C365.19,229.82 365.91,230.29 366.52,233.11 C366.90,234.81 366.77,236.63 366.23,237.17 C365.70,237.70 361.27,239.22 356.38,240.54 C351.50,241.86 339.85,245.25 330.50,248.06 C303.52,256.19 280.54,262.96 280.00,262.95 C279.73,262.95 278.38,261.40 277.00,259.51 ZM 171.58 230.13 C171.04,229.26 150.78,174.96 147.42,165.38 L 145.63 160.27 L 148.06 157.19 C149.40,155.50 151.18,154.09 152.00,154.06 C152.82,154.03 157.10,155.39 161.50,157.07 C176.26,162.73 181.44,164.72 193.50,169.42 L 205.50 174.10 L 205.62 178.53 C205.69,180.97 206.50,184.12 207.42,185.53 C209.34,188.45 210.19,186.91 199.18,200.50 C185.66,217.20 173.80,231.00 172.98,231.00 C172.51,231.00 171.88,230.61 171.58,230.13 ZM 348.50 220.32 C319.79,210.61 319.18,210.40 294.50,201.84 C281.85,197.45 264.08,191.35 255.00,188.29 C245.93,185.22 238.17,182.22 237.77,181.61 C237.37,181.00 237.25,179.82 237.49,179.00 C237.74,178.18 237.53,175.72 237.03,173.53 C236.39,170.76 236.46,169.14 237.28,168.16 C238.24,167.01 291.59,122.17 299.84,115.58 C301.98,113.87 302.60,113.80 305.38,114.98 C307.09,115.70 311.13,116.57 314.34,116.90 L 320.17 117.50 L 328.65 134.00 C333.30,143.07 344.81,165.57 354.20,184.00 C363.60,202.43 371.74,218.08 372.29,218.78 C373.00,219.69 372.61,220.84 370.91,222.78 C369.60,224.28 368.30,225.78 368.01,226.12 C367.73,226.46 358.95,223.85 348.50,220.32 ZM 198.00 167.10 C193.88,165.56 183.75,161.60 175.50,158.28 C167.25,154.96 158.81,151.65 156.75,150.92 C153.33,149.72 153.00,149.27 153.00,145.91 C153.00,143.55 153.54,142.01 154.50,141.64 C155.33,141.32 179.51,135.23 208.25,128.10 C303.42,104.50 298.50,105.54 299.70,108.66 C300.11,109.73 299.49,110.99 297.92,112.24 C296.59,113.29 282.75,124.81 267.17,137.83 C251.59,150.85 237.58,162.53 236.03,163.80 L 233.21 166.10 L 229.85 164.05 C223.47,160.16 213.67,161.79 209.19,167.48 C208.10,168.87 206.83,169.97 206.36,169.94 C205.89,169.91 202.12,168.63 198.00,167.10 Z" fill="rgb(240,241,241)"/>
</g>
</svg>